<?xml version="1.0" encoding="UTF-8"?>
<svg version="1.1" xmlns="http://www.w3.org/2000/svg" width="326" height="326">
<path d="M0 0 C107.58 0 215.16 0 326 0 C326 107.58 326 215.16 326 326 C218.42 326 110.84 326 0 326 C0 218.42 0 110.84 0 0 Z " fill="#E1A3CE" transform="translate(0,0)"/>
<path d="M0 0 C0 0.66 0 1.32 0 2 C0.72058594 2.24363281 1.44117188 2.48726562 2.18359375 2.73828125 C10.47975456 6.45486924 16.4765204 13.71027162 19.7956543 21.9831543 C21.80422173 27.53899416 22.48150602 32.42320141 22.375 38.3125 C22.35759766 39.56015137 22.35759766 39.56015137 22.33984375 40.83300781 C21.99884534 53.74581534 17.86089571 64.18302329 11 75 C8 77 8 77 5 77 C5.73492344 72.39447975 7.45278228 68.95864879 9.6484375 64.890625 C13.28527916 57.11240874 14.55400563 50.27581665 14.5 41.6875 C14.49645508 40.67510254 14.49291016 39.66270508 14.48925781 38.61962891 C14.26230509 28.38866578 11.87633071 20.80724191 5 13 C3.25952157 11.54083757 1.46459536 10.14453193 -0.375 8.8125 C-1.74785156 7.80123047 -1.74785156 7.80123047 -3.1484375 6.76953125 C-19.36510826 -3.29369047 -45.70859764 1.39004182 -63.19140625 5.45703125 C-71.46908315 7.56262559 -79.22427642 10.49623184 -87 14 C-87.76473633 14.33515625 -88.52947266 14.6703125 -89.31738281 15.015625 C-105.18123595 21.99962934 -120.05693194 30.69425405 -134 41 C-134.57927246 41.42361816 -135.15854492 41.84723633 -135.75537109 42.28369141 C-145.15390231 49.16555991 -154.26236786 56.29155126 -163 64 C-163.72018311 64.63260742 -164.44036621 65.26521484 -165.18237305 65.91699219 C-171.49606946 71.52440643 -177.5454855 77.35923855 -183.51391602 83.32861328 C-185.05923066 84.8717353 -186.61240446 86.40664306 -188.16601562 87.94140625 C-194.56277571 94.30266758 -200.3849913 100.92670855 -206 108 C-206.86324737 109.02766839 -207.73163688 110.05108652 -208.609375 111.06640625 C-215.96501228 119.64350885 -222.52088159 128.75143231 -229 138 C-229.45938965 138.65403809 -229.9187793 139.30807617 -230.39208984 139.98193359 C-253.26136079 172.76093718 -272.21809619 211.17734016 -269 252 C-268.19196995 256.46595041 -266.44566278 260.18554453 -264 264 C-263.56558594 264.73734375 -263.13117188 265.4746875 -262.68359375 266.234375 C-256.85818153 275.06377471 -248.0864122 279.6995902 -238 282 C-237.38979004 282.17055908 -236.77958008 282.34111816 -236.15087891 282.5168457 C-223.13847748 285.43983576 -208.44498586 283.14732321 -196 279 C-195.28875977 278.7745752 -194.57751953 278.54915039 -193.84472656 278.31689453 C-175.42421836 272.41062362 -157.63177423 263.40404056 -142 252 C-140.78017051 251.12729295 -139.56010251 250.25491922 -138.33984375 249.3828125 C-127.24745733 241.40025834 -116.78922164 232.86175562 -106.78125 223.55859375 C-104.49882104 221.45888734 -102.18252118 219.43602977 -99.8125 217.4375 C-95.10937252 213.34403719 -91.07684818 208.70558288 -87 204 C-86.1440625 203.03191406 -85.288125 202.06382812 -84.40625 201.06640625 C-58.89089279 171.90467591 -38.02605734 135.62335642 -37.6875 96.125 C-37.65849609 95.00480469 -37.62949219 93.88460937 -37.59960938 92.73046875 C-37.52585847 83.00669564 -39.51572436 74.71436469 -46.3046875 67.46484375 C-55.53650167 59.48804579 -68.05565066 59.2427608 -79.60986328 59.80029297 C-108.54827674 62.21823191 -134.94150747 81.22407033 -153.42529297 102.65234375 C-173.62884063 126.8101239 -186.65861028 153.14635956 -193 184 C-193.20238281 184.94617188 -193.40476562 185.89234375 -193.61328125 186.8671875 C-195.92343469 205.58176388 -194.63518824 223.88842058 -185.171875 240.44921875 C-183.90650161 243.20351482 -183.76271264 245.00694352 -184 248 C-190.22856544 245.34229702 -193.70558757 239.77858167 -196.4921875 233.796875 C-208.33785356 203.65701462 -201.32757903 171.10023995 -188.81835938 142.27734375 C-181.82150497 126.92721727 -173.00465337 112.80133147 -162 100 C-160.78763672 98.58654297 -160.78763672 98.58654297 -159.55078125 97.14453125 C-139.7202031 74.5310374 -111.61782782 55.70588269 -81 53 C-56.27882384 51.49942762 -56.27882384 51.49942762 -46 58 C-45.18660156 58.50789063 -44.37320313 59.01578125 -43.53515625 59.5390625 C-34.01529375 66.2235583 -28.74061852 75.46973477 -26.44921875 86.69921875 C-22.61628885 114.86292109 -31.86460231 141.53070465 -45 166 C-45.88751953 167.7015625 -45.88751953 167.7015625 -46.79296875 169.4375 C-61.89231355 197.25377698 -85.69623652 224.11508173 -111 243 C-112.38181339 244.07122388 -113.76329251 245.14287902 -115.14453125 246.21484375 C-132.14600447 259.24171367 -150.48596584 269.26495808 -170 278 C-171.39025391 278.64388672 -171.39025391 278.64388672 -172.80859375 279.30078125 C-179.85156279 282.37688409 -187.34934821 283.93040709 -194.8359375 285.52978516 C-196.8444402 285.96619944 -198.844602 286.44052995 -200.84375 286.91796875 C-220.01917028 291.13735358 -242.6101281 291.4515789 -260.21484375 281.85546875 C-275.31668196 271.79463685 -280.54477009 257.51012772 -284.55078125 240.68701172 C-285.41410196 235.52304015 -285.18591307 230.26123377 -285.18530273 225.03735352 C-285.18746804 222.96804564 -285.20558952 220.89929038 -285.22460938 218.83007812 C-285.43620908 170.12523431 -253.71830275 122.74425674 -221.98828125 88.171875 C-220.05723516 86.06252014 -218.180553 83.91515076 -216.3125 81.75 C-213.33551107 78.3437708 -210.31406922 75.08285509 -207 72 C-206.34 72 -205.68 72 -205 72 C-205 71.34 -205 70.68 -205 70 C-203.70703125 68.66015625 -203.70703125 68.66015625 -201.8125 67.0625 C-201.07257813 66.43601562 -200.33265625 65.80953125 -199.5703125 65.1640625 C-198.72210938 64.44992188 -197.87390625 63.73578125 -197 63 C-196.08992188 62.20335938 -195.17984375 61.40671875 -194.2421875 60.5859375 C-166.48564839 36.3844231 -133.19249262 16.25445195 -98 5 C-97.24187012 4.7520166 -96.48374023 4.5040332 -95.70263672 4.24853516 C-65.8818795 -5.35978276 -30.19020102 -11.02119463 0 0 Z " fill="#060406" transform="translate(294,22)"/>
</svg>
